<?xml version="1.0" encoding="UTF-8" standalone="no"?>
<!DOCTYPE svg PUBLIC "-//W3C//DTD SVG 1.1//EN"
 "http://www.w3.org/Graphics/SVG/1.1/DTD/svg11.dtd">
<!-- Generated by graphviz version 2.40.1 (20161225.0304)
 -->
<!-- Title: dependencies Pages: 1 -->
<svg width="504pt" height="284pt"
 viewBox="0.00 0.00 504.00 284.00" xmlns="http://www.w3.org/2000/svg" xmlns:xlink="http://www.w3.org/1999/xlink">
<g id="graph0" class="graph" transform="scale(1 1) rotate(0) translate(4 280)">
<title>dependencies</title>
<polygon fill="#ffffff" stroke="transparent" points="-4,4 -4,-280 500,-280 500,4 -4,4"/>
<text text-anchor="start" x="227.0091" y="-42.4" font-family="sans-serif" font-weight="bold" font-size="14.00" fill="#000000">Legend</text>
<polygon fill="#ffffb3" stroke="transparent" points="14,-10 14,-30 34,-30 34,-10 14,-10"/>
<text text-anchor="start" x="37.629" y="-15.4" font-family="sans-serif" font-size="14.00" fill="#000000"> &#160;Declarations</text>
<polygon fill="#8dd3c7" stroke="transparent" points="127,-10 127,-30 147,-30 147,-10 127,-10"/>
<text text-anchor="start" x="150.7251" y="-15.4" font-family="sans-serif" font-size="14.00" fill="#000000"> &#160;Module</text>
<polygon fill="#80b1d3" stroke="transparent" points="213,-10 213,-30 233,-30 233,-10 213,-10"/>
<text text-anchor="start" x="236.7812" y="-15.4" font-family="sans-serif" font-size="14.00" fill="#000000"> &#160;Bootstrap</text>
<polygon fill="#fdb462" stroke="transparent" points="310,-10 310,-30 330,-30 330,-10 310,-10"/>
<text text-anchor="start" x="333.6732" y="-15.4" font-family="sans-serif" font-size="14.00" fill="#000000"> &#160;Providers</text>
<polygon fill="#fb8072" stroke="transparent" points="406,-10 406,-30 426,-30 426,-10 406,-10"/>
<text text-anchor="start" x="429.7258" y="-15.4" font-family="sans-serif" font-size="14.00" fill="#000000"> &#160;Exports</text>
<g id="clust1" class="cluster">
<title>cluster_SharedModule</title>
<polygon fill="none" stroke="#000000" stroke-dasharray="1,5" points="27,-70 27,-268 469,-268 469,-70 27,-70"/>
</g>
<g id="clust2" class="cluster">
<title>cluster_SharedModule_declarations</title>
<polygon fill="none" stroke="#000000" points="187,-78 187,-130 461,-130 461,-78 187,-78"/>
</g>
<g id="clust5" class="cluster">
<title>cluster_SharedModule_imports</title>
<polygon fill="none" stroke="#000000" points="35,-78 35,-130 179,-130 179,-78 35,-78"/>
</g>
<g id="clust6" class="cluster">
<title>cluster_SharedModule_exports</title>
<polygon fill="none" stroke="#000000" points="112,-208 112,-260 393,-260 393,-208 112,-208"/>
</g>
<!-- ToolbarComponent -->
<g id="node1" class="node">
<title>ToolbarComponent</title>
<polygon fill="#ffffb3" stroke="#000000" points="452.6513,-122 327.3487,-122 327.3487,-86 452.6513,-86 452.6513,-122"/>
<text text-anchor="middle" x="390" y="-99.8" font-family="Times,serif" font-size="14.00" fill="#000000">ToolbarComponent</text>
</g>
<!-- SharedModule -->
<g id="node3" class="node">
<title>SharedModule</title>
<polygon fill="#8dd3c7" stroke="#000000" points="301.4231,-187 298.4231,-191 277.4231,-191 274.4231,-187 202.5769,-187 202.5769,-151 301.4231,-151 301.4231,-187"/>
<text text-anchor="middle" x="252" y="-164.8" font-family="Times,serif" font-size="14.00" fill="#000000">SharedModule</text>
</g>
<!-- ToolbarComponent&#45;&gt;SharedModule -->
<g id="edge1" class="edge">
<title>ToolbarComponent&#45;&gt;SharedModule</title>
<path fill="none" stroke="#000000" d="M355.875,-122.1061C355.875,-141.3391 355.875,-169 355.875,-169 355.875,-169 311.5037,-169 311.5037,-169"/>
<polygon fill="#000000" stroke="#000000" points="311.5038,-165.5001 301.5037,-169 311.5037,-172.5001 311.5038,-165.5001"/>
</g>
<!-- MenuComponent -->
<g id="node2" class="node">
<title>MenuComponent</title>
<polygon fill="#ffffb3" stroke="#000000" points="308.9916,-122 195.0084,-122 195.0084,-86 308.9916,-86 308.9916,-122"/>
<text text-anchor="middle" x="252" y="-99.8" font-family="Times,serif" font-size="14.00" fill="#000000">MenuComponent</text>
</g>
<!-- MenuComponent&#45;&gt;SharedModule -->
<g id="edge2" class="edge">
<title>MenuComponent&#45;&gt;SharedModule</title>
<path fill="none" stroke="#000000" d="M252,-122.1061C252,-122.1061 252,-140.991 252,-140.991"/>
<polygon fill="#000000" stroke="#000000" points="248.5001,-140.9909 252,-150.991 255.5001,-140.991 248.5001,-140.9909"/>
</g>
<!-- ToolbarComponent  -->
<g id="node5" class="node">
<title>ToolbarComponent </title>
<polygon fill="#fb8072" stroke="#000000" points="384.6509,-252 255.3491,-252 255.3491,-216 384.6509,-216 384.6509,-252"/>
<text text-anchor="middle" x="320" y="-229.8" font-family="Times,serif" font-size="14.00" fill="#000000">ToolbarComponent </text>
</g>
<!-- SharedModule&#45;&gt;ToolbarComponent  -->
<g id="edge4" class="edge">
<title>SharedModule&#45;&gt;ToolbarComponent </title>
<path fill="none" stroke="#000000" stroke-dasharray="5,2" d="M278.3179,-187.1061C278.3179,-187.1061 278.3179,-205.991 278.3179,-205.991"/>
<polygon fill="#000000" stroke="#000000" points="274.8179,-205.9909 278.3179,-215.991 281.8179,-205.991 274.8179,-205.9909"/>
</g>
<!-- MenuComponent  -->
<g id="node6" class="node">
<title>MenuComponent </title>
<polygon fill="#fb8072" stroke="#000000" points="237.9926,-252 120.0074,-252 120.0074,-216 237.9926,-216 237.9926,-252"/>
<text text-anchor="middle" x="179" y="-229.8" font-family="Times,serif" font-size="14.00" fill="#000000">MenuComponent </text>
</g>
<!-- SharedModule&#45;&gt;MenuComponent  -->
<g id="edge5" class="edge">
<title>SharedModule&#45;&gt;MenuComponent </title>
<path fill="none" stroke="#000000" stroke-dasharray="5,2" d="M220.2674,-187.1061C220.2674,-187.1061 220.2674,-205.991 220.2674,-205.991"/>
<polygon fill="#000000" stroke="#000000" points="216.7674,-205.9909 220.2674,-215.991 223.7674,-205.991 216.7674,-205.9909"/>
</g>
<!-- AppRoutingModule -->
<g id="node4" class="node">
<title>AppRoutingModule</title>
<polygon fill="#8dd3c7" stroke="#000000" points="171.2744,-122 168.2744,-126 147.2744,-126 144.2744,-122 42.7256,-122 42.7256,-86 171.2744,-86 171.2744,-122"/>
<text text-anchor="middle" x="107" y="-99.8" font-family="Times,serif" font-size="14.00" fill="#000000">AppRoutingModule</text>
</g>
<!-- AppRoutingModule&#45;&gt;SharedModule -->
<g id="edge3" class="edge">
<title>AppRoutingModule&#45;&gt;SharedModule</title>
<path fill="none" stroke="#000000" d="M145.8207,-122.1061C145.8207,-141.3391 145.8207,-169 145.8207,-169 145.8207,-169 192.6405,-169 192.6405,-169"/>
<polygon fill="#000000" stroke="#000000" points="192.6405,-172.5001 202.6405,-169 192.6404,-165.5001 192.6405,-172.5001"/>
</g>
</g>
</svg>
