<?xml version="1.0" encoding="UTF-8" standalone="no"?>
<!DOCTYPE svg PUBLIC "-//W3C//DTD SVG 1.1//EN"
 "http://www.w3.org/Graphics/SVG/1.1/DTD/svg11.dtd">
<!-- Generated by graphviz version 2.40.1 (20161225.0304)
 -->
<!-- Title: dependencies Pages: 1 -->
<svg width="1083pt" height="284pt"
 viewBox="0.00 0.00 1083.00 284.00" xmlns="http://www.w3.org/2000/svg" xmlns:xlink="http://www.w3.org/1999/xlink">
<g id="graph0" class="graph" transform="scale(1 1) rotate(0) translate(4 280)">
<title>dependencies</title>
<polygon fill="#ffffff" stroke="transparent" points="-4,4 -4,-280 1079,-280 1079,4 -4,4"/>
<text text-anchor="start" x="516.5091" y="-42.4" font-family="sans-serif" font-weight="bold" font-size="14.00" fill="#000000">Legend</text>
<polygon fill="#ffffb3" stroke="transparent" points="303.5,-10 303.5,-30 323.5,-30 323.5,-10 303.5,-10"/>
<text text-anchor="start" x="327.129" y="-15.4" font-family="sans-serif" font-size="14.00" fill="#000000"> &#160;Declarations</text>
<polygon fill="#8dd3c7" stroke="transparent" points="416.5,-10 416.5,-30 436.5,-30 436.5,-10 416.5,-10"/>
<text text-anchor="start" x="440.2251" y="-15.4" font-family="sans-serif" font-size="14.00" fill="#000000"> &#160;Module</text>
<polygon fill="#80b1d3" stroke="transparent" points="502.5,-10 502.5,-30 522.5,-30 522.5,-10 502.5,-10"/>
<text text-anchor="start" x="526.2812" y="-15.4" font-family="sans-serif" font-size="14.00" fill="#000000"> &#160;Bootstrap</text>
<polygon fill="#fdb462" stroke="transparent" points="599.5,-10 599.5,-30 619.5,-30 619.5,-10 599.5,-10"/>
<text text-anchor="start" x="623.1732" y="-15.4" font-family="sans-serif" font-size="14.00" fill="#000000"> &#160;Providers</text>
<polygon fill="#fb8072" stroke="transparent" points="695.5,-10 695.5,-30 715.5,-30 715.5,-10 695.5,-10"/>
<text text-anchor="start" x="719.2258" y="-15.4" font-family="sans-serif" font-size="14.00" fill="#000000"> &#160;Exports</text>
<g id="clust1" class="cluster">
<title>cluster_ConsultantsModule</title>
<polygon fill="none" stroke="#000000" stroke-dasharray="1,5" points="8,-70 8,-268 1067,-268 1067,-70 8,-70"/>
</g>
<g id="clust2" class="cluster">
<title>cluster_ConsultantsModule_declarations</title>
<polygon fill="none" stroke="#000000" points="481,-78 481,-130 1059,-130 1059,-78 481,-78"/>
</g>
<g id="clust6" class="cluster">
<title>cluster_ConsultantsModule_imports</title>
<polygon fill="none" stroke="#000000" points="212,-78 212,-130 473,-130 473,-78 212,-78"/>
</g>
<g id="clust7" class="cluster">
<title>cluster_ConsultantsModule_exports</title>
<polygon fill="none" stroke="#000000" points="314,-208 314,-260 678,-260 678,-208 314,-208"/>
</g>
<g id="clust9" class="cluster">
<title>cluster_ConsultantsModule_providers</title>
<polygon fill="none" stroke="#000000" points="16,-78 16,-130 204,-130 204,-78 16,-78"/>
</g>
<!-- ConsultantsComponent -->
<g id="node1" class="node">
<title>ConsultantsComponent</title>
<polygon fill="#ffffb3" stroke="#000000" points="1050.9453,-122 903.0547,-122 903.0547,-86 1050.9453,-86 1050.9453,-122"/>
<text text-anchor="middle" x="977" y="-99.8" font-family="Times,serif" font-size="14.00" fill="#000000">ConsultantsComponent</text>
</g>
<!-- ConsultantsModule -->
<g id="node4" class="node">
<title>ConsultantsModule</title>
<polygon fill="#8dd3c7" stroke="#000000" points="565.6625,-187 562.6625,-191 541.6625,-191 538.6625,-187 440.3375,-187 440.3375,-151 565.6625,-151 565.6625,-187"/>
<text text-anchor="middle" x="503" y="-164.8" font-family="Times,serif" font-size="14.00" fill="#000000">ConsultantsModule</text>
</g>
<!-- ConsultantsComponent&#45;&gt;ConsultantsModule -->
<g id="edge1" class="edge">
<title>ConsultantsComponent&#45;&gt;ConsultantsModule</title>
<path fill="none" stroke="#000000" d="M977,-122.2843C977,-143.3211 977,-175 977,-175 977,-175 575.9435,-175 575.9435,-175"/>
<polygon fill="#000000" stroke="#000000" points="575.9436,-171.5001 565.9435,-175 575.9435,-178.5001 575.9436,-171.5001"/>
</g>
<!-- ConsultantDetailComponent -->
<g id="node2" class="node">
<title>ConsultantDetailComponent</title>
<polygon fill="#ffffb3" stroke="#000000" points="885.2077,-122 708.7923,-122 708.7923,-86 885.2077,-86 885.2077,-122"/>
<text text-anchor="middle" x="797" y="-99.8" font-family="Times,serif" font-size="14.00" fill="#000000">ConsultantDetailComponent</text>
</g>
<!-- ConsultantDetailComponent&#45;&gt;ConsultantsModule -->
<g id="edge2" class="edge">
<title>ConsultantDetailComponent&#45;&gt;ConsultantsModule</title>
<path fill="none" stroke="#000000" d="M797,-122.0225C797,-139.3734 797,-163 797,-163 797,-163 575.7098,-163 575.7098,-163"/>
<polygon fill="#000000" stroke="#000000" points="575.7098,-159.5001 565.7098,-163 575.7097,-166.5001 575.7098,-159.5001"/>
</g>
<!-- ConsultantCommentsComponent -->
<g id="node3" class="node">
<title>ConsultantCommentsComponent</title>
<polygon fill="#ffffb3" stroke="#000000" points="691.1679,-122 488.8321,-122 488.8321,-86 691.1679,-86 691.1679,-122"/>
<text text-anchor="middle" x="590" y="-99.8" font-family="Times,serif" font-size="14.00" fill="#000000">ConsultantCommentsComponent</text>
</g>
<!-- ConsultantCommentsComponent&#45;&gt;ConsultantsModule -->
<g id="edge3" class="edge">
<title>ConsultantCommentsComponent&#45;&gt;ConsultantsModule</title>
<path fill="none" stroke="#000000" d="M527.2486,-122.1061C527.2486,-122.1061 527.2486,-140.991 527.2486,-140.991"/>
<polygon fill="#000000" stroke="#000000" points="523.7487,-140.9909 527.2486,-150.991 530.7487,-140.991 523.7487,-140.9909"/>
</g>
<!-- ConsultantsComponent  -->
<g id="node7" class="node">
<title>ConsultantsComponent </title>
<polygon fill="#fb8072" stroke="#000000" points="670.4446,-252 519.5554,-252 519.5554,-216 670.4446,-216 670.4446,-252"/>
<text text-anchor="middle" x="595" y="-229.8" font-family="Times,serif" font-size="14.00" fill="#000000">ConsultantsComponent </text>
</g>
<!-- ConsultantsModule&#45;&gt;ConsultantsComponent  -->
<g id="edge6" class="edge">
<title>ConsultantsModule&#45;&gt;ConsultantsComponent </title>
<path fill="none" stroke="#000000" stroke-dasharray="5,2" d="M542.6794,-187.1061C542.6794,-187.1061 542.6794,-205.991 542.6794,-205.991"/>
<polygon fill="#000000" stroke="#000000" points="539.1794,-205.9909 542.6794,-215.991 546.1794,-205.991 539.1794,-205.9909"/>
</g>
<!-- ConsultantDetailComponent  -->
<g id="node8" class="node">
<title>ConsultantDetailComponent </title>
<polygon fill="#fb8072" stroke="#000000" points="501.7078,-252 322.2922,-252 322.2922,-216 501.7078,-216 501.7078,-252"/>
<text text-anchor="middle" x="412" y="-229.8" font-family="Times,serif" font-size="14.00" fill="#000000">ConsultantDetailComponent </text>
</g>
<!-- ConsultantsModule&#45;&gt;ConsultantDetailComponent  -->
<g id="edge7" class="edge">
<title>ConsultantsModule&#45;&gt;ConsultantDetailComponent </title>
<path fill="none" stroke="#000000" stroke-dasharray="5,2" d="M471.0114,-187.1061C471.0114,-187.1061 471.0114,-205.991 471.0114,-205.991"/>
<polygon fill="#000000" stroke="#000000" points="467.5115,-205.9909 471.0114,-215.991 474.5115,-205.991 467.5115,-205.9909"/>
</g>
<!-- SharedModule -->
<g id="node5" class="node">
<title>SharedModule</title>
<polygon fill="#8dd3c7" stroke="#000000" points="465.4231,-122 462.4231,-126 441.4231,-126 438.4231,-122 366.5769,-122 366.5769,-86 465.4231,-86 465.4231,-122"/>
<text text-anchor="middle" x="416" y="-99.8" font-family="Times,serif" font-size="14.00" fill="#000000">SharedModule</text>
</g>
<!-- SharedModule&#45;&gt;ConsultantsModule -->
<g id="edge4" class="edge">
<title>SharedModule&#45;&gt;ConsultantsModule</title>
<path fill="none" stroke="#000000" d="M452.6901,-122.1061C452.6901,-122.1061 452.6901,-140.991 452.6901,-140.991"/>
<polygon fill="#000000" stroke="#000000" points="449.1901,-140.9909 452.6901,-150.991 456.1901,-140.991 449.1901,-140.9909"/>
</g>
<!-- AppRoutingModule -->
<g id="node6" class="node">
<title>AppRoutingModule</title>
<polygon fill="#8dd3c7" stroke="#000000" points="348.2744,-122 345.2744,-126 324.2744,-126 321.2744,-122 219.7256,-122 219.7256,-86 348.2744,-86 348.2744,-122"/>
<text text-anchor="middle" x="284" y="-99.8" font-family="Times,serif" font-size="14.00" fill="#000000">AppRoutingModule</text>
</g>
<!-- AppRoutingModule&#45;&gt;ConsultantsModule -->
<g id="edge5" class="edge">
<title>AppRoutingModule&#45;&gt;ConsultantsModule</title>
<path fill="none" stroke="#000000" d="M335.2666,-122.0225C335.2666,-139.3734 335.2666,-163 335.2666,-163 335.2666,-163 430.0651,-163 430.0651,-163"/>
<polygon fill="#000000" stroke="#000000" points="430.0651,-166.5001 440.0651,-163 430.065,-159.5001 430.0651,-166.5001"/>
</g>
<!-- ConsultantsService -->
<g id="node9" class="node">
<title>ConsultantsService</title>
<ellipse fill="#fdb462" stroke="#000000" cx="110" cy="-104" rx="85.6899" ry="18"/>
<text text-anchor="middle" x="110" y="-99.8" font-family="Times,serif" font-size="14.00" fill="#000000">ConsultantsService</text>
</g>
<!-- ConsultantsService&#45;&gt;ConsultantsModule -->
<g id="edge8" class="edge">
<title>ConsultantsService&#45;&gt;ConsultantsModule</title>
<path fill="none" stroke="#000000" d="M110,-122.2843C110,-143.3211 110,-175 110,-175 110,-175 430.2934,-175 430.2934,-175"/>
<polygon fill="#000000" stroke="#000000" points="430.2935,-178.5001 440.2934,-175 430.2934,-171.5001 430.2935,-178.5001"/>
</g>
</g>
</svg>
