<?xml version="1.0" encoding="UTF-8" standalone="no"?>
<!DOCTYPE svg PUBLIC "-//W3C//DTD SVG 1.1//EN"
 "http://www.w3.org/Graphics/SVG/1.1/DTD/svg11.dtd">
<!-- Generated by graphviz version 2.40.1 (20161225.0304)
 -->
<!-- Title: dependencies Pages: 1 -->
<svg width="708pt" height="284pt"
 viewBox="0.00 0.00 708.00 284.00" xmlns="http://www.w3.org/2000/svg" xmlns:xlink="http://www.w3.org/1999/xlink">
<g id="graph0" class="graph" transform="scale(1 1) rotate(0) translate(4 280)">
<title>dependencies</title>
<polygon fill="#ffffff" stroke="transparent" points="-4,4 -4,-280 704,-280 704,4 -4,4"/>
<text text-anchor="start" x="329.0091" y="-42.4" font-family="sans-serif" font-weight="bold" font-size="14.00" fill="#000000">Legend</text>
<polygon fill="#ffffb3" stroke="transparent" points="116,-10 116,-30 136,-30 136,-10 116,-10"/>
<text text-anchor="start" x="139.629" y="-15.4" font-family="sans-serif" font-size="14.00" fill="#000000"> &#160;Declarations</text>
<polygon fill="#8dd3c7" stroke="transparent" points="229,-10 229,-30 249,-30 249,-10 229,-10"/>
<text text-anchor="start" x="252.7251" y="-15.4" font-family="sans-serif" font-size="14.00" fill="#000000"> &#160;Module</text>
<polygon fill="#80b1d3" stroke="transparent" points="315,-10 315,-30 335,-30 335,-10 315,-10"/>
<text text-anchor="start" x="338.7812" y="-15.4" font-family="sans-serif" font-size="14.00" fill="#000000"> &#160;Bootstrap</text>
<polygon fill="#fdb462" stroke="transparent" points="412,-10 412,-30 432,-30 432,-10 412,-10"/>
<text text-anchor="start" x="435.6732" y="-15.4" font-family="sans-serif" font-size="14.00" fill="#000000"> &#160;Providers</text>
<polygon fill="#fb8072" stroke="transparent" points="508,-10 508,-30 528,-30 528,-10 508,-10"/>
<text text-anchor="start" x="531.7258" y="-15.4" font-family="sans-serif" font-size="14.00" fill="#000000"> &#160;Exports</text>
<g id="clust1" class="cluster">
<title>cluster_AppModule</title>
<polygon fill="none" stroke="#000000" stroke-dasharray="1,5" points="8,-70 8,-268 692,-268 692,-70 8,-70"/>
</g>
<g id="clust2" class="cluster">
<title>cluster_AppModule_declarations</title>
<polygon fill="none" stroke="#000000" points="429,-78 429,-130 684,-130 684,-78 429,-78"/>
</g>
<g id="clust5" class="cluster">
<title>cluster_AppModule_imports</title>
<polygon fill="none" stroke="#000000" points="16,-78 16,-130 421,-130 421,-78 16,-78"/>
</g>
<g id="clust7" class="cluster">
<title>cluster_AppModule_bootstrap</title>
<polygon fill="none" stroke="#000000" points="287,-208 287,-260 411,-260 411,-208 287,-208"/>
</g>
<!-- AppComponent -->
<g id="node1" class="node">
<title>AppComponent</title>
<polygon fill="#ffffb3" stroke="#000000" points="675.9399,-122 570.0601,-122 570.0601,-86 675.9399,-86 675.9399,-122"/>
<text text-anchor="middle" x="623" y="-99.8" font-family="Times,serif" font-size="14.00" fill="#000000">AppComponent</text>
</g>
<!-- AppModule -->
<g id="node3" class="node">
<title>AppModule</title>
<polygon fill="#8dd3c7" stroke="#000000" points="390.6571,-187 387.6571,-191 366.6571,-191 363.6571,-187 307.3429,-187 307.3429,-151 390.6571,-151 390.6571,-187"/>
<text text-anchor="middle" x="349" y="-164.8" font-family="Times,serif" font-size="14.00" fill="#000000">AppModule</text>
</g>
<!-- AppComponent&#45;&gt;AppModule -->
<g id="edge1" class="edge">
<title>AppComponent&#45;&gt;AppModule</title>
<path fill="none" stroke="#000000" d="M623,-122.2843C623,-143.3211 623,-175 623,-175 623,-175 400.913,-175 400.913,-175"/>
<polygon fill="#000000" stroke="#000000" points="400.913,-171.5001 390.913,-175 400.9129,-178.5001 400.913,-171.5001"/>
</g>
<!-- HomeComponent -->
<g id="node2" class="node">
<title>HomeComponent</title>
<polygon fill="#ffffb3" stroke="#000000" points="552.5451,-122 437.4549,-122 437.4549,-86 552.5451,-86 552.5451,-122"/>
<text text-anchor="middle" x="495" y="-99.8" font-family="Times,serif" font-size="14.00" fill="#000000">HomeComponent</text>
</g>
<!-- HomeComponent&#45;&gt;AppModule -->
<g id="edge2" class="edge">
<title>HomeComponent&#45;&gt;AppModule</title>
<path fill="none" stroke="#000000" d="M495,-122.0225C495,-139.3734 495,-163 495,-163 495,-163 400.8377,-163 400.8377,-163"/>
<polygon fill="#000000" stroke="#000000" points="400.8378,-159.5001 390.8377,-163 400.8377,-166.5001 400.8378,-159.5001"/>
</g>
<!-- AppComponent  -->
<g id="node7" class="node">
<title>AppComponent </title>
<polygon fill="#80b1d3" stroke="#000000" points="403.439,-252 294.561,-252 294.561,-216 403.439,-216 403.439,-252"/>
<text text-anchor="middle" x="349" y="-229.8" font-family="Times,serif" font-size="14.00" fill="#000000">AppComponent </text>
</g>
<!-- AppModule&#45;&gt;AppComponent  -->
<g id="edge6" class="edge">
<title>AppModule&#45;&gt;AppComponent </title>
<path fill="none" stroke="#000000" stroke-dasharray="1,5" d="M349,-187.1061C349,-187.1061 349,-205.991 349,-205.991"/>
<polygon fill="#000000" stroke="#000000" points="345.5001,-205.9909 349,-215.991 352.5001,-205.991 345.5001,-205.9909"/>
</g>
<!-- AppRoutingModule -->
<g id="node4" class="node">
<title>AppRoutingModule</title>
<polygon fill="#8dd3c7" stroke="#000000" points="413.2744,-122 410.2744,-126 389.2744,-126 386.2744,-122 284.7256,-122 284.7256,-86 413.2744,-86 413.2744,-122"/>
<text text-anchor="middle" x="349" y="-99.8" font-family="Times,serif" font-size="14.00" fill="#000000">AppRoutingModule</text>
</g>
<!-- AppRoutingModule&#45;&gt;AppModule -->
<g id="edge3" class="edge">
<title>AppRoutingModule&#45;&gt;AppModule</title>
<path fill="none" stroke="#000000" d="M349,-122.1061C349,-122.1061 349,-140.991 349,-140.991"/>
<polygon fill="#000000" stroke="#000000" points="345.5001,-140.9909 349,-150.991 352.5001,-140.991 345.5001,-140.9909"/>
</g>
<!-- SharedModule -->
<g id="node5" class="node">
<title>SharedModule</title>
<polygon fill="#8dd3c7" stroke="#000000" points="266.4231,-122 263.4231,-126 242.4231,-126 239.4231,-122 167.5769,-122 167.5769,-86 266.4231,-86 266.4231,-122"/>
<text text-anchor="middle" x="217" y="-99.8" font-family="Times,serif" font-size="14.00" fill="#000000">SharedModule</text>
</g>
<!-- SharedModule&#45;&gt;AppModule -->
<g id="edge4" class="edge">
<title>SharedModule&#45;&gt;AppModule</title>
<path fill="none" stroke="#000000" d="M217,-122.0225C217,-139.3734 217,-163 217,-163 217,-163 297.2344,-163 297.2344,-163"/>
<polygon fill="#000000" stroke="#000000" points="297.2344,-166.5001 307.2344,-163 297.2343,-159.5001 297.2344,-166.5001"/>
</g>
<!-- ConsultantsModule -->
<g id="node6" class="node">
<title>ConsultantsModule</title>
<polygon fill="#8dd3c7" stroke="#000000" points="149.6625,-122 146.6625,-126 125.6625,-126 122.6625,-122 24.3375,-122 24.3375,-86 149.6625,-86 149.6625,-122"/>
<text text-anchor="middle" x="87" y="-99.8" font-family="Times,serif" font-size="14.00" fill="#000000">ConsultantsModule</text>
</g>
<!-- ConsultantsModule&#45;&gt;AppModule -->
<g id="edge5" class="edge">
<title>ConsultantsModule&#45;&gt;AppModule</title>
<path fill="none" stroke="#000000" d="M87,-122.2843C87,-143.3211 87,-175 87,-175 87,-175 297.1956,-175 297.1956,-175"/>
<polygon fill="#000000" stroke="#000000" points="297.1956,-178.5001 307.1956,-175 297.1956,-171.5001 297.1956,-178.5001"/>
</g>
</g>
</svg>
