<?xml version="1.0" encoding="UTF-8" standalone="no"?>
<!DOCTYPE svg PUBLIC "-//W3C//DTD SVG 1.1//EN"
 "http://www.w3.org/Graphics/SVG/1.1/DTD/svg11.dtd">
<!-- Generated by graphviz version 2.40.1 (20161225.0304)
 -->
<!-- Title: dependencies Pages: 1 -->
<svg width="2236pt" height="425pt"
 viewBox="0.00 0.00 2236.00 425.00" xmlns="http://www.w3.org/2000/svg" xmlns:xlink="http://www.w3.org/1999/xlink">
<g id="graph0" class="graph" transform="scale(1 1) rotate(0) translate(4 421)">
<title>dependencies</title>
<polygon fill="#ffffff" stroke="transparent" points="-4,4 -4,-421 2232,-421 2232,4 -4,4"/>
<text text-anchor="start" x="1093.0091" y="-42.4" font-family="sans-serif" font-weight="bold" font-size="14.00" fill="#000000">Legend</text>
<polygon fill="#ffffb3" stroke="transparent" points="880,-10 880,-30 900,-30 900,-10 880,-10"/>
<text text-anchor="start" x="903.629" y="-15.4" font-family="sans-serif" font-size="14.00" fill="#000000"> &#160;Declarations</text>
<polygon fill="#8dd3c7" stroke="transparent" points="993,-10 993,-30 1013,-30 1013,-10 993,-10"/>
<text text-anchor="start" x="1016.7251" y="-15.4" font-family="sans-serif" font-size="14.00" fill="#000000"> &#160;Module</text>
<polygon fill="#80b1d3" stroke="transparent" points="1079,-10 1079,-30 1099,-30 1099,-10 1079,-10"/>
<text text-anchor="start" x="1102.7812" y="-15.4" font-family="sans-serif" font-size="14.00" fill="#000000"> &#160;Bootstrap</text>
<polygon fill="#fdb462" stroke="transparent" points="1176,-10 1176,-30 1196,-30 1196,-10 1176,-10"/>
<text text-anchor="start" x="1199.6732" y="-15.4" font-family="sans-serif" font-size="14.00" fill="#000000"> &#160;Providers</text>
<polygon fill="#fb8072" stroke="transparent" points="1272,-10 1272,-30 1292,-30 1292,-10 1272,-10"/>
<text text-anchor="start" x="1295.7258" y="-15.4" font-family="sans-serif" font-size="14.00" fill="#000000"> &#160;Exports</text>
<g id="clust1" class="cluster">
<title>cluster_AppModule</title>
<polygon fill="none" stroke="#000000" stroke-dasharray="1,5" points="1178,-70 1178,-409 1633,-409 1633,-70 1178,-70"/>
</g>
<g id="clust2" class="cluster">
<title>cluster_AppModule_declarations</title>
<polygon fill="none" stroke="#000000" points="1370,-219 1370,-271 1625,-271 1625,-219 1370,-219"/>
</g>
<g id="clust5" class="cluster">
<title>cluster_AppModule_imports</title>
<polygon fill="none" stroke="#000000" points="1186,-78 1186,-271 1330,-271 1330,-78 1186,-78"/>
</g>
<g id="clust7" class="cluster">
<title>cluster_AppModule_bootstrap</title>
<polygon fill="none" stroke="#000000" points="1297,-349 1297,-401 1421,-401 1421,-349 1297,-349"/>
</g>
<g id="clust15" class="cluster">
<title>cluster_ConsultantsModule</title>
<polygon fill="none" stroke="#000000" stroke-dasharray="1,5" points="8,-135 8,-203 1170,-203 1170,-135 8,-135"/>
</g>
<g id="clust16" class="cluster">
<title>cluster_ConsultantsModule_declarations</title>
<polygon fill="none" stroke="#000000" points="584,-143 584,-195 1162,-195 1162,-143 584,-143"/>
</g>
<g id="clust21" class="cluster">
<title>cluster_ConsultantsModule_exports</title>
<polygon fill="none" stroke="#000000" points="212,-143 212,-195 576,-195 576,-143 212,-143"/>
</g>
<g id="clust23" class="cluster">
<title>cluster_ConsultantsModule_providers</title>
<polygon fill="none" stroke="#000000" points="16,-143 16,-195 204,-195 204,-143 16,-143"/>
</g>
<g id="clust24" class="cluster">
<title>cluster_SharedModule</title>
<polygon fill="none" stroke="#000000" stroke-dasharray="1,5" points="1641,-211 1641,-279 2220,-279 2220,-211 1641,-211"/>
</g>
<g id="clust25" class="cluster">
<title>cluster_SharedModule_declarations</title>
<polygon fill="none" stroke="#000000" points="1938,-219 1938,-271 2212,-271 2212,-219 1938,-219"/>
</g>
<g id="clust29" class="cluster">
<title>cluster_SharedModule_exports</title>
<polygon fill="none" stroke="#000000" points="1649,-219 1649,-271 1930,-271 1930,-219 1649,-219"/>
</g>
<!-- AppComponent -->
<g id="node1" class="node">
<title>AppComponent</title>
<polygon fill="#ffffb3" stroke="#000000" points="1616.9399,-263 1511.0601,-263 1511.0601,-227 1616.9399,-227 1616.9399,-263"/>
<text text-anchor="middle" x="1564" y="-240.8" font-family="Times,serif" font-size="14.00" fill="#000000">AppComponent</text>
</g>
<!-- AppModule -->
<g id="node3" class="node">
<title>AppModule</title>
<polygon fill="#8dd3c7" stroke="#000000" points="1400.6571,-328 1397.6571,-332 1376.6571,-332 1373.6571,-328 1317.3429,-328 1317.3429,-292 1400.6571,-292 1400.6571,-328"/>
<text text-anchor="middle" x="1359" y="-305.8" font-family="Times,serif" font-size="14.00" fill="#000000">AppModule</text>
</g>
<!-- AppComponent&#45;&gt;AppModule -->
<g id="edge1" class="edge">
<title>AppComponent&#45;&gt;AppModule</title>
<path fill="none" stroke="#000000" d="M1564,-263.1061C1564,-282.3391 1564,-310 1564,-310 1564,-310 1410.9795,-310 1410.9795,-310"/>
<polygon fill="#000000" stroke="#000000" points="1410.9795,-306.5001 1400.9795,-310 1410.9795,-313.5001 1410.9795,-306.5001"/>
</g>
<!-- HomeComponent -->
<g id="node2" class="node">
<title>HomeComponent</title>
<polygon fill="#ffffb3" stroke="#000000" points="1493.5451,-263 1378.4549,-263 1378.4549,-227 1493.5451,-227 1493.5451,-263"/>
<text text-anchor="middle" x="1436" y="-240.8" font-family="Times,serif" font-size="14.00" fill="#000000">HomeComponent</text>
</g>
<!-- HomeComponent&#45;&gt;AppModule -->
<g id="edge2" class="edge">
<title>HomeComponent&#45;&gt;AppModule</title>
<path fill="none" stroke="#000000" d="M1389.528,-263.1061C1389.528,-263.1061 1389.528,-281.991 1389.528,-281.991"/>
<polygon fill="#000000" stroke="#000000" points="1386.0281,-281.9909 1389.528,-291.991 1393.0281,-281.991 1386.0281,-281.9909"/>
</g>
<!-- AppComponent  -->
<g id="node7" class="node">
<title>AppComponent </title>
<polygon fill="#80b1d3" stroke="#000000" points="1413.439,-393 1304.561,-393 1304.561,-357 1413.439,-357 1413.439,-393"/>
<text text-anchor="middle" x="1359" y="-370.8" font-family="Times,serif" font-size="14.00" fill="#000000">AppComponent </text>
</g>
<!-- AppModule&#45;&gt;AppComponent  -->
<g id="edge6" class="edge">
<title>AppModule&#45;&gt;AppComponent </title>
<path fill="none" stroke="#000000" stroke-dasharray="1,5" d="M1359,-328.1061C1359,-328.1061 1359,-346.991 1359,-346.991"/>
<polygon fill="#000000" stroke="#000000" points="1355.5001,-346.9909 1359,-356.991 1362.5001,-346.991 1355.5001,-346.9909"/>
</g>
<!-- AppRoutingModule -->
<g id="node4" class="node">
<title>AppRoutingModule</title>
<polygon fill="#8dd3c7" stroke="#000000" points="1322.2744,-122 1319.2744,-126 1298.2744,-126 1295.2744,-122 1193.7256,-122 1193.7256,-86 1322.2744,-86 1322.2744,-122"/>
<text text-anchor="middle" x="1258" y="-99.8" font-family="Times,serif" font-size="14.00" fill="#000000">AppRoutingModule</text>
</g>
<!-- AppRoutingModule&#45;&gt;AppModule -->
<g id="edge3" class="edge">
<title>AppRoutingModule&#45;&gt;AppModule</title>
<path fill="none" stroke="#000000" d="M1322.3539,-104C1342.5199,-104 1359.6143,-104 1359.6143,-104 1359.6143,-104 1359.6143,-281.7189 1359.6143,-281.7189"/>
<polygon fill="#000000" stroke="#000000" points="1356.1144,-281.7188 1359.6143,-291.7189 1363.1144,-281.7189 1356.1144,-281.7188"/>
</g>
<!-- SharedModule -->
<g id="node5" class="node">
<title>SharedModule</title>
<polygon fill="#8dd3c7" stroke="#000000" points="1322.4231,-187 1319.4231,-191 1298.4231,-191 1295.4231,-187 1223.5769,-187 1223.5769,-151 1322.4231,-151 1322.4231,-187"/>
<text text-anchor="middle" x="1273" y="-164.8" font-family="Times,serif" font-size="14.00" fill="#000000">SharedModule</text>
</g>
<!-- AppRoutingModule&#45;&gt;SharedModule -->
<g id="edge17" class="edge">
<title>AppRoutingModule&#45;&gt;SharedModule</title>
<path fill="none" stroke="#000000" d="M1273,-122.1061C1273,-122.1061 1273,-140.991 1273,-140.991"/>
<polygon fill="#000000" stroke="#000000" points="1269.5001,-140.9909 1273,-150.991 1276.5001,-140.991 1269.5001,-140.9909"/>
</g>
<!-- ConsultantsModule -->
<g id="node6" class="node">
<title>ConsultantsModule</title>
<polygon fill="#8dd3c7" stroke="#000000" points="1319.6625,-263 1316.6625,-267 1295.6625,-267 1292.6625,-263 1194.3375,-263 1194.3375,-227 1319.6625,-227 1319.6625,-263"/>
<text text-anchor="middle" x="1257" y="-240.8" font-family="Times,serif" font-size="14.00" fill="#000000">ConsultantsModule</text>
</g>
<!-- AppRoutingModule&#45;&gt;ConsultantsModule -->
<g id="edge11" class="edge">
<title>AppRoutingModule&#45;&gt;ConsultantsModule</title>
<path fill="none" stroke="#000000" d="M1213.9156,-122.1446C1213.9156,-122.1446 1213.9156,-216.925 1213.9156,-216.925"/>
<polygon fill="#000000" stroke="#000000" points="1210.4157,-216.925 1213.9156,-226.925 1217.4157,-216.925 1210.4157,-216.925"/>
</g>
<!-- SharedModule&#45;&gt;AppModule -->
<g id="edge4" class="edge">
<title>SharedModule&#45;&gt;AppModule</title>
<path fill="none" stroke="#000000" d="M1322.4192,-181C1332.9655,-181 1341.0007,-181 1341.0007,-181 1341.0007,-181 1341.0007,-281.7911 1341.0007,-281.7911"/>
<polygon fill="#000000" stroke="#000000" points="1337.5008,-281.791 1341.0007,-291.7911 1344.5008,-281.7911 1337.5008,-281.791"/>
</g>
<!-- SharedModule&#45;&gt;ConsultantsModule -->
<g id="edge10" class="edge">
<title>SharedModule&#45;&gt;ConsultantsModule</title>
<path fill="none" stroke="#000000" d="M1271.81,-187.0109C1271.81,-187.0109 1271.81,-216.855 1271.81,-216.855"/>
<polygon fill="#000000" stroke="#000000" points="1268.31,-216.8549 1271.81,-226.855 1275.31,-216.855 1268.31,-216.8549"/>
</g>
<!-- ToolbarComponent  -->
<g id="node16" class="node">
<title>ToolbarComponent </title>
<polygon fill="#fb8072" stroke="#000000" points="1921.6509,-263 1792.3491,-263 1792.3491,-227 1921.6509,-227 1921.6509,-263"/>
<text text-anchor="middle" x="1857" y="-240.8" font-family="Times,serif" font-size="14.00" fill="#000000">ToolbarComponent </text>
</g>
<!-- SharedModule&#45;&gt;ToolbarComponent  -->
<g id="edge18" class="edge">
<title>SharedModule&#45;&gt;ToolbarComponent </title>
<path fill="none" stroke="#000000" stroke-dasharray="5,2" d="M1322.2882,-169C1463.0828,-169 1857,-169 1857,-169 1857,-169 1857,-216.9891 1857,-216.9891"/>
<polygon fill="#000000" stroke="#000000" points="1853.5001,-216.989 1857,-226.9891 1860.5001,-216.9891 1853.5001,-216.989"/>
</g>
<!-- MenuComponent  -->
<g id="node17" class="node">
<title>MenuComponent </title>
<polygon fill="#fb8072" stroke="#000000" points="1774.9926,-263 1657.0074,-263 1657.0074,-227 1774.9926,-227 1774.9926,-263"/>
<text text-anchor="middle" x="1716" y="-240.8" font-family="Times,serif" font-size="14.00" fill="#000000">MenuComponent </text>
</g>
<!-- SharedModule&#45;&gt;MenuComponent  -->
<g id="edge19" class="edge">
<title>SharedModule&#45;&gt;MenuComponent </title>
<path fill="none" stroke="#000000" stroke-dasharray="5,2" d="M1322.5282,-175C1438.1275,-175 1716,-175 1716,-175 1716,-175 1716,-216.9733 1716,-216.9733"/>
<polygon fill="#000000" stroke="#000000" points="1712.5001,-216.9732 1716,-226.9733 1719.5001,-216.9733 1712.5001,-216.9732"/>
</g>
<!-- ConsultantsModule&#45;&gt;AppModule -->
<g id="edge5" class="edge">
<title>ConsultantsModule&#45;&gt;AppModule</title>
<path fill="none" stroke="#000000" d="M1310.8512,-263.1061C1310.8512,-282.3391 1310.8512,-310 1310.8512,-310 1310.8512,-310 1311.4806,-310 1311.4806,-310"/>
<polygon fill="#000000" stroke="#000000" points="1307.1458,-313.5002 1317.1458,-310 1307.1457,-306.5002 1307.1458,-313.5002"/>
</g>
<!-- ConsultantsComponent  -->
<g id="node11" class="node">
<title>ConsultantsComponent </title>
<polygon fill="#fb8072" stroke="#000000" points="568.4446,-187 417.5554,-187 417.5554,-151 568.4446,-151 568.4446,-187"/>
<text text-anchor="middle" x="493" y="-164.8" font-family="Times,serif" font-size="14.00" fill="#000000">ConsultantsComponent </text>
</g>
<!-- ConsultantsModule&#45;&gt;ConsultantsComponent  -->
<g id="edge12" class="edge">
<title>ConsultantsModule&#45;&gt;ConsultantsComponent </title>
<path fill="none" stroke="#000000" stroke-dasharray="5,2" d="M1194.154,-245C1011.3984,-245 493,-245 493,-245 493,-245 493,-197.0109 493,-197.0109"/>
<polygon fill="#000000" stroke="#000000" points="496.5001,-197.0109 493,-187.0109 489.5001,-197.011 496.5001,-197.0109"/>
</g>
<!-- ConsultantDetailComponent  -->
<g id="node12" class="node">
<title>ConsultantDetailComponent </title>
<polygon fill="#fb8072" stroke="#000000" points="399.7078,-187 220.2922,-187 220.2922,-151 399.7078,-151 399.7078,-187"/>
<text text-anchor="middle" x="310" y="-164.8" font-family="Times,serif" font-size="14.00" fill="#000000">ConsultantDetailComponent </text>
</g>
<!-- ConsultantsModule&#45;&gt;ConsultantDetailComponent  -->
<g id="edge13" class="edge">
<title>ConsultantsModule&#45;&gt;ConsultantDetailComponent </title>
<path fill="none" stroke="#000000" stroke-dasharray="5,2" d="M1194.1313,-251C982.6229,-251 310,-251 310,-251 310,-251 310,-197.1985 310,-197.1985"/>
<polygon fill="#000000" stroke="#000000" points="313.5001,-197.1984 310,-187.1985 306.5001,-197.1985 313.5001,-197.1984"/>
</g>
<!-- ConsultantsComponent -->
<g id="node8" class="node">
<title>ConsultantsComponent</title>
<polygon fill="#ffffb3" stroke="#000000" points="1153.9453,-187 1006.0547,-187 1006.0547,-151 1153.9453,-151 1153.9453,-187"/>
<text text-anchor="middle" x="1080" y="-164.8" font-family="Times,serif" font-size="14.00" fill="#000000">ConsultantsComponent</text>
</g>
<!-- ConsultantsComponent&#45;&gt;ConsultantsModule -->
<g id="edge7" class="edge">
<title>ConsultantsComponent&#45;&gt;ConsultantsModule</title>
<path fill="none" stroke="#000000" d="M1153.9471,-169C1180.5113,-169 1204.0423,-169 1204.0423,-169 1204.0423,-169 1204.0423,-216.9891 1204.0423,-216.9891"/>
<polygon fill="#000000" stroke="#000000" points="1200.5424,-216.989 1204.0423,-226.9891 1207.5424,-216.9891 1200.5424,-216.989"/>
</g>
<!-- ConsultantDetailComponent -->
<g id="node9" class="node">
<title>ConsultantDetailComponent</title>
<polygon fill="#ffffb3" stroke="#000000" points="988.2077,-187 811.7923,-187 811.7923,-151 988.2077,-151 988.2077,-187"/>
<text text-anchor="middle" x="900" y="-164.8" font-family="Times,serif" font-size="14.00" fill="#000000">ConsultantDetailComponent</text>
</g>
<!-- ConsultantDetailComponent&#45;&gt;ConsultantsModule -->
<g id="edge8" class="edge">
<title>ConsultantDetailComponent&#45;&gt;ConsultantsModule</title>
<path fill="none" stroke="#000000" d="M900,-187.1686C900,-206.0898 900,-233 900,-233 900,-233 1183.9973,-233 1183.9973,-233"/>
<polygon fill="#000000" stroke="#000000" points="1183.9974,-236.5001 1193.9973,-233 1183.9973,-229.5001 1183.9974,-236.5001"/>
</g>
<!-- ConsultantCommentsComponent -->
<g id="node10" class="node">
<title>ConsultantCommentsComponent</title>
<polygon fill="#ffffb3" stroke="#000000" points="794.1679,-187 591.8321,-187 591.8321,-151 794.1679,-151 794.1679,-187"/>
<text text-anchor="middle" x="693" y="-164.8" font-family="Times,serif" font-size="14.00" fill="#000000">ConsultantCommentsComponent</text>
</g>
<!-- ConsultantCommentsComponent&#45;&gt;ConsultantsModule -->
<g id="edge9" class="edge">
<title>ConsultantCommentsComponent&#45;&gt;ConsultantsModule</title>
<path fill="none" stroke="#000000" d="M693,-187.0267C693,-207.7672 693,-239 693,-239 693,-239 1184.2157,-239 1184.2157,-239"/>
<polygon fill="#000000" stroke="#000000" points="1184.2157,-242.5001 1194.2157,-239 1184.2157,-235.5001 1184.2157,-242.5001"/>
</g>
<!-- ConsultantsService -->
<g id="node13" class="node">
<title>ConsultantsService</title>
<ellipse fill="#fdb462" stroke="#000000" cx="110" cy="-169" rx="85.6899" ry="18"/>
<text text-anchor="middle" x="110" y="-164.8" font-family="Times,serif" font-size="14.00" fill="#000000">ConsultantsService</text>
</g>
<!-- ConsultantsService&#45;&gt;ConsultantsModule -->
<g id="edge14" class="edge">
<title>ConsultantsService&#45;&gt;ConsultantsModule</title>
<path fill="none" stroke="#000000" d="M110,-187.2337C110,-213.0094 110,-257 110,-257 110,-257 1184.1087,-257 1184.1087,-257"/>
<polygon fill="#000000" stroke="#000000" points="1184.1087,-260.5001 1194.1087,-257 1184.1087,-253.5001 1184.1087,-260.5001"/>
</g>
<!-- ToolbarComponent -->
<g id="node14" class="node">
<title>ToolbarComponent</title>
<polygon fill="#ffffb3" stroke="#000000" points="2203.6513,-263 2078.3487,-263 2078.3487,-227 2203.6513,-227 2203.6513,-263"/>
<text text-anchor="middle" x="2141" y="-240.8" font-family="Times,serif" font-size="14.00" fill="#000000">ToolbarComponent</text>
</g>
<!-- ToolbarComponent&#45;&gt;SharedModule -->
<g id="edge15" class="edge">
<title>ToolbarComponent&#45;&gt;SharedModule</title>
<path fill="none" stroke="#000000" d="M2141,-226.7663C2141,-200.9906 2141,-157 2141,-157 2141,-157 1332.4693,-157 1332.4693,-157"/>
<polygon fill="#000000" stroke="#000000" points="1332.4693,-153.5001 1322.4693,-157 1332.4693,-160.5001 1332.4693,-153.5001"/>
</g>
<!-- MenuComponent -->
<g id="node15" class="node">
<title>MenuComponent</title>
<polygon fill="#ffffb3" stroke="#000000" points="2059.9916,-263 1946.0084,-263 1946.0084,-227 2059.9916,-227 2059.9916,-263"/>
<text text-anchor="middle" x="2003" y="-240.8" font-family="Times,serif" font-size="14.00" fill="#000000">MenuComponent</text>
</g>
<!-- MenuComponent&#45;&gt;SharedModule -->
<g id="edge16" class="edge">
<title>MenuComponent&#45;&gt;SharedModule</title>
<path fill="none" stroke="#000000" d="M2003,-226.8015C2003,-202.6437 2003,-163 2003,-163 2003,-163 1332.3161,-163 1332.3161,-163"/>
<polygon fill="#000000" stroke="#000000" points="1332.3161,-159.5001 1322.3161,-163 1332.316,-166.5001 1332.3161,-159.5001"/>
</g>
</g>
</svg>
